<svg width="47" height="47" viewBox="0 0 47 47" fill="none" xmlns="http://www.w3.org/2000/svg">
<circle cx="23.5" cy="23.5" r="22.5" fill="#F8D9FA" stroke="#A638BF"/>
<path d="M29.5 17.875H26.6875V16.9375C26.6875 15.9062 25.8438 15.0625 24.8125 15.0625H21.0625C20.0313 15.0625 19.1875 15.9062 19.1875 16.9375V17.875H16.375C14.7813 17.875 13.5625 19.0938 13.5625 20.6875V29.125C13.5625 30.7188 14.7813 31.9375 16.375 31.9375H29.5C31.0938 31.9375 32.3125 30.7188 32.3125 29.125V20.6875C32.3125 19.0938 31.0938 17.875 29.5 17.875ZM21.0625 16.9375H24.8125V17.875H21.0625V16.9375ZM30.4375 29.125C30.4375 29.6875 30.0625 30.0625 29.5 30.0625H16.375C15.8125 30.0625 15.4375 29.6875 15.4375 29.125V23.875L19.8438 25.375H25.75C25.8438 25.375 25.9375 25.375 26.0313 25.2812L30.4375 23.7812V29.125Z" fill="#A638BF"/>
</svg>
