<svg width="47" height="47" viewBox="0 0 47 47" fill="none" xmlns="http://www.w3.org/2000/svg">
<circle cx="23.5" cy="23.5" r="22.5" fill="#CEF6F3" stroke="#54B5AB"/>
<path d="M32.5 28.8438C31.339 28.8438 31.2048 27.5078 29.4132 27.5078C27.6137 27.5078 27.473 28.8438 26.316 28.8438C25.1684 28.8438 25.0127 27.5078 23.2188 27.5078C21.4436 27.5078 21.2623 28.8438 20.1319 28.8438C18.9656 28.8438 18.8391 27.5078 17.0347 27.5078C15.2304 27.5078 15.1017 28.8438 13.9375 28.8438V25.5039C13.9375 24.3976 14.8283 23.5 15.9263 23.5H16.5893V17.4883H19.2411V23.5H21.8929V17.4883H24.5446V23.5H27.1964V17.4883H29.8482V23.5H30.5112C31.6092 23.5 32.5 24.3976 32.5 25.5039V28.8438ZM32.5 34.1875H13.9375V30.1797C15.7339 30.1797 15.8753 28.8438 17.0347 28.8438C18.1928 28.8438 18.3296 30.1797 20.1319 30.1797C21.9071 30.1797 22.0883 28.8438 23.2188 28.8438C24.385 28.8438 24.5115 30.1797 26.316 30.1797C28.1124 30.1797 28.2537 28.8438 29.4132 28.8438C30.5521 28.8438 30.7081 30.1797 32.5 30.1797V34.1875ZM17.9152 16.8203C17.1797 16.8203 16.5893 16.2254 16.5893 15.4844C16.5893 14.1902 17.9152 14.5242 17.9152 12.8125C18.4124 12.8125 19.2411 14.0441 19.2411 15.1504C19.2411 16.2567 18.6506 16.8203 17.9152 16.8203ZM23.2188 16.8203C22.4833 16.8203 21.8929 16.2254 21.8929 15.4844C21.8929 14.1902 23.2188 14.5242 23.2188 12.8125C23.716 12.8125 24.5446 14.0441 24.5446 15.1504C24.5446 16.2567 23.9542 16.8203 23.2188 16.8203ZM28.5223 16.8203C27.7869 16.8203 27.1964 16.2254 27.1964 15.4844C27.1964 14.1902 28.5223 14.5242 28.5223 12.8125C29.0195 12.8125 29.8482 14.0441 29.8482 15.1504C29.8482 16.2567 29.2578 16.8203 28.5223 16.8203Z" fill="#54B5AB"/>
</svg>
