<?xml version="1.0" encoding="utf-8"?>
<!-- Generator: Adobe Illustrator 25.2.1, SVG Export Plug-In . SVG Version: 6.00 Build 0)  -->
<svg version="1.1" id="Layer_1" xmlns="http://www.w3.org/2000/svg" xmlns:xlink="http://www.w3.org/1999/xlink" x="0px" y="0px"
	 viewBox="0 0 350 350" style="enable-background:new 0 0 350 350;" xml:space="preserve">
<style type="text/css">
	.st0{opacity:0.1;}
	.st1{fill:#787878;}
</style>
<g transform="translate(910.5 713.5)" class="st0">
	<path class="st1" d="M-727-546.4c4.7,0,8.5-3.8,8.5-8.5s-3.8-8.5-8.5-8.5s-8.5,3.8-8.5,8.5S-731.7-546.4-727-546.4z M-727-557.8
		c1.6,0,2.8,1.3,2.8,2.8s-1.3,2.8-2.8,2.8s-2.8-1.3-2.8-2.8S-728.5-557.8-727-557.8z"/>
	<path class="st1" d="M-707-574.8H-764c-3.1,0-5.7,2.5-5.7,5.7v56.9c0,3.1,2.5,5.7,5.7,5.7h56.9c3.1,0,5.7-2.5,5.7-5.7v-56.9
		C-701.3-572.3-703.9-574.8-707-574.8z M-707-512.2H-764v-17.1l14.2-14.2l15.9,15.9c2.2,2.2,5.8,2.2,8,0l4.5-4.5l14.2,14.2V-512.2z
		 M-707-525.9l-10.2-10.2c-2.2-2.2-5.8-2.2-8,0l-4.5,4.5l-15.9-15.9c-2.2-2.2-5.8-2.2-8,0l-10.2,10.2v-31.8h56.9V-525.9z"/>
</g>
</svg>
