<svg xmlns="http://www.w3.org/2000/svg" width="80" height="52" viewBox="0 0 80 52"><defs><style>.a{fill:#fff;stroke:#e3e7e8;stroke-width:0.5px;}.b{fill:#777;}.c{stroke:none;}.d{fill:none;}</style></defs><g transform="translate(-888 -705)"><g class="a" transform="translate(888 705)"><rect class="c" width="80" height="52"/><rect class="d" x="0.25" y="0.25" width="79.5" height="51.5"/></g><g transform="translate(910.5 713.5)"><path class="b" d="M21.375,15.75A3.375,3.375,0,1,0,18,12.375a3.375,3.375,0,0,0,3.375,3.375Zm0-4.5a1.125,1.125,0,1,1-1.125,1.125A1.125,1.125,0,0,1,21.375,11.25Z"/><path class="b" d="M29.25,4.5H6.75A2.25,2.25,0,0,0,4.5,6.75v22.5A2.25,2.25,0,0,0,6.75,31.5h22.5a2.25,2.25,0,0,0,2.25-2.25V6.75A2.25,2.25,0,0,0,29.25,4.5Zm0,24.75H6.75V22.5l5.625-5.625,6.289,6.289a2.25,2.25,0,0,0,3.172,0l1.789-1.789L29.25,27Zm0-5.434-4.039-4.039a2.25,2.25,0,0,0-3.172,0L20.25,21.566l-6.289-6.289a2.25,2.25,0,0,0-3.172,0L6.75,19.316V6.75h22.5Z"/></g></g></svg>