<svg width="47" height="47" viewBox="0 0 47 47" fill="none" xmlns="http://www.w3.org/2000/svg">
<circle cx="23.5" cy="23.5" r="22.5" fill="#D8E4FD" stroke="#2B5FB3"/>
<path d="M21.1562 21.625C21.5872 21.625 22.0138 21.5401 22.4119 21.3752C22.81 21.2103 23.1718 20.9686 23.4764 20.6639C23.7811 20.3593 24.0228 19.9975 24.1877 19.5994C24.3526 19.2013 24.4375 18.7746 24.4375 18.3437C24.4375 17.9128 24.3526 17.4862 24.1877 17.0881C24.0228 16.69 23.7811 16.3282 23.4764 16.0236C23.1718 15.7189 22.81 15.4772 22.4119 15.3123C22.0138 15.1474 21.5872 15.0625 21.1562 15.0625C20.286 15.0625 19.4514 15.4082 18.8361 16.0236C18.2207 16.6389 17.875 17.4735 17.875 18.3437C17.875 19.214 18.2207 20.0486 18.8361 20.6639C19.4514 21.2793 20.286 21.625 21.1562 21.625ZM14.125 31.375V31.9375H28.1875V31.375C28.1875 29.275 28.1875 28.225 27.7787 27.4225C27.4192 26.7169 26.8456 26.1433 26.14 25.7837C25.3375 25.375 24.2875 25.375 22.1875 25.375H20.125C18.025 25.375 16.975 25.375 16.1725 25.7837C15.4669 26.1433 14.8933 26.7169 14.5338 27.4225C14.125 28.225 14.125 29.275 14.125 31.375Z" fill="#2B5FB3" stroke="#2B5FB3" stroke-width="2" stroke-linecap="round" stroke-linejoin="round"/>
<path d="M30.0625 18.3438V23.9688M27.25 21.1562H32.875" stroke="#2B5FB3" stroke-width="2" stroke-linecap="round" stroke-linejoin="round"/>
</svg>
