<svg width="127" height="30" viewBox="0 0 127 30" fill="none" xmlns="http://www.w3.org/2000/svg">
<g clip-path="url(#clip0)">
<path fill-rule="evenodd" clip-rule="evenodd" d="M126.998 7.41497H122.519C122.569 7.56426 122.519 7.81309 122.469 8.11168L118.737 21.6477C118.638 21.9463 118.538 22.1454 118.389 22.3444H122.868C122.818 22.1454 122.868 21.9463 122.917 21.6477L126.65 8.11168C126.749 7.81309 126.849 7.56426 126.998 7.41497ZM121.375 7.41497C121.225 7.56426 121.126 7.81309 121.026 8.11168L117.294 21.6477C117.244 21.9463 117.194 22.1454 117.244 22.3444H112.765C112.915 22.1951 113.014 21.9463 113.114 21.6477L116.846 8.11168C116.946 7.81309 116.946 7.56426 116.896 7.41497H121.375ZM107.689 14.8797C107.938 13.9342 108.237 13.2872 108.485 12.8891C108.734 12.491 109.033 12.2919 109.381 12.2919C109.879 12.2919 110.028 12.69 109.929 13.4365C109.879 13.7849 109.779 14.2825 109.63 14.9295H107.689V14.8797ZM111.72 21.5482L111.969 19.2092C111.272 19.7567 110.675 20.105 110.177 20.3538C109.63 20.6027 109.132 20.7022 108.585 20.7022C108.087 20.7022 107.639 20.5529 107.341 20.3041C107.042 20.0553 106.843 19.6571 106.843 19.1595C106.793 18.6618 106.893 17.8656 107.142 16.8703H113.562C113.611 16.6712 113.661 16.5717 113.661 16.5219C114.009 15.2281 114.159 14.183 114.109 13.3868C114.059 12.5905 113.761 11.8938 113.263 11.3962C112.666 10.7492 111.67 10.4506 110.227 10.4506C108.485 10.4506 106.993 10.9483 105.748 11.9933C104.355 13.1379 103.36 14.7304 102.812 16.721C102.116 19.2092 102.563 20.951 104.206 21.9463C104.902 22.3942 105.898 22.5933 107.241 22.5933C108.087 22.5933 108.784 22.5435 109.431 22.3942C109.978 22.1951 110.775 21.9463 111.72 21.5482ZM92.6603 16.9698L95.6959 11.4459C95.7954 11.2966 95.8452 11.1971 95.8452 11.0976C95.8452 11.0478 95.895 10.9483 95.895 10.799H99.9259C99.8264 10.8985 99.8264 10.998 99.7766 11.0976C99.7269 11.1971 99.7269 11.3464 99.7269 11.4957L99.478 17.0196L102.514 11.4459C102.613 11.2966 102.663 11.1473 102.663 11.0976C102.663 11.0478 102.713 10.8985 102.663 10.7492H104.902C104.703 10.8985 104.554 11.1473 104.405 11.4459L98.8809 21.598C98.7813 21.7473 98.7316 21.8966 98.7316 21.9463C98.7316 21.9961 98.6818 22.1454 98.7316 22.2947H94.8001C94.8499 22.1454 94.8997 22.0458 94.9494 21.9463C94.9992 21.8468 94.9992 21.7473 94.9992 21.598L95.248 15.8252L92.1128 21.598C92.0133 21.8468 91.9138 21.9961 91.864 22.1454C91.864 22.1951 91.864 22.1951 91.8143 22.2947H88.1814C88.1814 22.2449 88.2312 22.1454 88.2312 22.1454C88.281 21.9961 88.2809 21.797 88.2809 21.598L88.4302 11.4459C88.4302 11.1473 88.3805 10.8985 88.3307 10.7492H93.1081C93.0086 10.8985 92.9589 10.998 92.9589 11.0976C92.9589 11.1473 92.9091 11.2966 92.9091 11.4459L92.6603 16.9698ZM82.757 12.8891C82.6078 12.8891 82.4087 12.9389 82.2096 13.0882C82.0106 13.2375 81.8613 13.4365 81.7618 13.6853C81.6125 14.0337 81.3139 14.9792 80.8162 16.6215C80.4181 18.214 80.1693 19.1595 80.1693 19.5078C80.1195 19.7567 80.1693 19.9557 80.2688 20.105C80.3683 20.2543 80.5176 20.3041 80.6669 20.3041C81.0153 20.3041 81.3139 20.0553 81.6125 19.5078C81.911 18.9604 82.2096 18.0149 82.6078 16.6215C83.0059 15.2281 83.2049 14.2328 83.2049 13.6853C83.2547 13.1379 83.1054 12.8891 82.757 12.8891ZM79.5721 21.6477L78.7261 24.6336C78.6266 24.9322 78.6266 25.181 78.6763 25.3303H74.1975C74.3468 25.1313 74.4463 24.9322 74.5458 24.6336L78.1787 11.4459C78.2284 11.1473 78.2782 10.9483 78.2284 10.7492H82.4585L82.2096 11.5952C83.0059 10.799 83.9016 10.4009 84.9965 10.4009C85.6932 10.4009 86.2904 10.5999 86.7382 11.0478C87.6838 11.9933 87.7833 13.8346 87.0368 16.5717C86.4894 18.4628 85.7927 19.9557 84.8472 20.951C84.3993 21.4487 83.8519 21.797 83.2547 22.0956C82.6575 22.3444 82.0106 22.4937 81.4134 22.4937C80.5176 22.5435 79.8707 22.2449 79.5721 21.6477ZM69.9675 14.8797C70.2163 13.9342 70.5149 13.2872 70.7637 12.8891C71.0125 12.491 71.3111 12.2919 71.6595 12.2919C72.1571 12.2919 72.3064 12.69 72.2069 13.4365C72.1571 13.7849 72.0576 14.2825 71.9083 14.9295H69.9675V14.8797ZM73.9984 21.5482L74.2473 19.2092C73.5505 19.7567 72.9534 20.105 72.4557 20.3538C71.9083 20.6027 71.4107 20.7022 70.8632 20.7022C70.3656 20.7022 69.9177 20.5529 69.6191 20.3041C69.3205 20.0553 69.1215 19.6571 69.1215 19.1595C69.0717 18.6618 69.1712 17.8656 69.4201 16.8703H75.8397C75.8895 16.6712 75.9393 16.5717 75.9393 16.5219C76.2876 15.2281 76.4369 14.183 76.3871 13.3868C76.3374 12.5905 76.0388 11.8938 75.5411 11.3962C74.944 10.7492 73.9487 10.4506 72.5055 10.4506C70.7637 10.4506 69.2708 10.9483 68.0266 11.9933C66.6332 13.1379 65.6877 14.7304 65.0905 16.721C64.3938 19.2092 64.8417 20.951 66.4839 21.9463C67.1806 22.3942 68.1759 22.5933 69.5196 22.5933C70.3656 22.5933 71.0623 22.5435 71.7092 22.3942C72.2567 22.1951 73.0529 21.9463 73.9984 21.5482ZM58.7206 14.8797H60.6117C60.761 14.2328 60.8605 13.7849 60.9103 13.3868C61.0098 12.6403 60.8605 12.2422 60.3629 12.2422C60.0145 12.2422 59.7657 12.4412 59.4671 12.8393C59.268 13.2872 58.9694 13.9839 58.7206 14.8797ZM62.7018 21.5482C61.7563 21.9463 61.0098 22.1951 60.3629 22.3444C59.7657 22.4937 59.0192 22.5435 58.1732 22.5435C56.8295 22.5435 55.8342 22.3444 55.1375 21.8966C53.5451 20.9013 53.0972 19.1595 53.7441 16.6712C54.2915 14.6806 55.2868 13.0882 56.6802 11.9436C57.9244 10.8985 59.4173 10.4009 61.1591 10.4009C62.6023 10.4009 63.5976 10.6995 64.1947 11.3464C64.6924 11.8938 64.991 12.5408 65.0407 13.337C65.0905 14.1332 64.9412 15.1783 64.5929 16.4722C64.5929 16.5219 64.5431 16.6215 64.4933 16.8205H58.0737C57.8248 17.8158 57.7253 18.5623 57.7751 19.1097C57.8248 19.6074 57.9741 19.9557 58.2727 20.2543C58.5713 20.5031 59.0192 20.6524 59.5168 20.6524C60.0643 20.6524 60.6117 20.5529 61.1093 20.3041C61.6567 20.0553 62.2539 19.7069 62.9009 19.1595L62.7018 21.5482ZM55.4361 7.41497H50.9573C51.0071 7.56426 50.9573 7.81309 50.9075 8.11168L47.1752 21.6477C47.0756 21.9463 46.9761 22.1454 46.8268 22.3444H51.3056C51.2559 22.1454 51.3056 21.9463 51.3554 21.6477L55.0878 8.11168C55.2371 7.81309 55.3366 7.56426 55.4361 7.41497ZM36.625 21.4487L38.0682 18.6618C38.4165 19.06 38.7151 19.3585 38.9142 19.5078C39.5114 20.0553 40.2081 20.3041 41.0043 20.3041C41.502 20.3041 41.9001 20.2045 42.2484 19.9557C42.6466 19.7069 42.8954 19.3585 42.9949 18.9107C43.1442 18.4628 43.0447 18.0647 42.6963 17.8158C42.547 17.7163 41.9996 17.4177 41.0541 16.9698C40.009 16.4722 39.3621 15.875 39.1132 15.2281C38.8644 14.5313 38.8644 13.7351 39.1132 12.8891C39.3621 11.9933 39.81 11.1473 40.5067 10.4009C41.8005 8.95768 43.5423 8.26097 45.732 8.26097C47.0259 8.26097 48.1705 8.55956 49.2653 9.10697L47.9714 11.7445C47.0259 10.799 46.1301 10.3013 45.2841 10.3013C44.886 10.3013 44.5376 10.4009 44.239 10.6497C43.9404 10.8487 43.7414 11.1473 43.6418 11.4957C43.5423 11.844 43.5921 12.1426 43.7911 12.2919C43.9902 12.491 44.6371 12.7896 45.732 13.2872C46.8766 13.7849 47.5235 14.4318 47.7226 15.1783C47.9216 15.7755 47.8719 16.5219 47.623 17.3679C47.3244 18.413 46.8268 19.3585 46.1799 20.2045C44.886 21.797 43.0944 22.5435 40.7555 22.5435C39.9592 22.5435 39.2625 22.444 38.6654 22.2947C38.0184 22.1454 37.3715 21.8468 36.625 21.4487ZM98.8809 4.47884H100.125L100.523 3.23472L100.921 4.47884H102.165L101.17 5.22531L101.568 6.46944L100.573 5.72296L99.5776 6.46944L99.9757 5.22531L98.8809 4.47884ZM92.8593 1.79154H94.6509L95.1983 0L95.7457 1.79154H97.5372L96.094 2.88636L96.6414 4.6779L95.1983 3.58307L93.7551 4.6779L94.3025 2.88636L92.8593 1.79154ZM88.2312 6.46944H89.6246L90.0725 5.07602L90.5204 6.46944H91.9138L90.7692 7.3652L91.2171 8.75862L90.0725 7.91262L88.9279 8.75862L89.3758 7.3652L88.2312 6.46944Z" fill="#0075BC"/>
<path d="M18.3137 8.50979C18.7118 8.75862 19.0601 9.05721 19.4583 9.3558C24.3352 6.96708 27.6197 3.98119 27.0723 2.09012C26.4751 -0.149298 20.2545 -0.597182 13.2377 1.24412C8.46023 2.53801 4.47904 4.23001 2.6875 6.32014C5.3748 3.33424 12.1926 4.23001 18.3137 8.50979Z" fill="#7097CF"/>
<path d="M26.027 20.0054C26.226 20.7021 26.1763 21.349 25.9274 21.9462C27.2711 18.612 24.5838 13.3867 19.458 9.3557C18.7613 9.70406 18.0646 10.0026 17.3181 10.3012C10.5999 13.0383 2.93606 13.1378 1.94077 9.40547C1.74171 8.75853 1.79147 8.11158 2.0403 7.5144C0.696643 10.7989 3.23465 15.9247 8.21114 19.9059C8.80832 19.6073 9.45526 19.3087 10.152 19.0599C17.0693 16.273 24.9819 16.1237 26.027 20.0054Z" fill="#EE3124"/>
<path d="M9.60354 20.9511C9.10589 20.6027 8.65801 20.2544 8.21012 19.906C2.98481 22.3942 -0.498733 25.5294 0.0486808 27.5698C0.645859 29.859 7.06553 30.3566 14.2814 28.4158C19.5068 27.0224 23.8363 25.1313 25.4288 22.7924C22.9903 26.2261 15.9237 25.3801 9.60354 20.9511Z" fill="#FDB913"/>
<path d="M1.88845 9.40558C2.88375 13.138 10.5475 13.0384 17.2658 10.3014C18.0123 10.0028 18.709 9.70417 19.4057 9.35582C19.0573 9.05723 18.6592 8.80841 18.2611 8.50982C12.1898 4.23004 5.372 3.33427 2.73446 6.32016C2.5354 6.56899 2.18704 7.06664 1.98798 7.56428C1.73916 8.1117 1.68939 8.75864 1.88845 9.40558Z" fill="#8A4D9E"/>
<path d="M25.9272 21.9464C26.1761 21.3492 26.2258 20.6525 26.0268 20.0056C24.9817 16.1239 17.0691 16.2732 10.1518 19.0601C9.50482 19.3089 8.85788 19.6075 8.21094 19.9061C8.65882 20.2544 9.10671 20.6028 9.60435 20.9511C15.9245 25.3802 23.0409 26.2262 25.4296 22.7924C25.4296 22.7924 25.7282 22.4441 25.9272 21.9464Z" fill="#F58220"/>
</g>
<defs>
<clipPath id="clip0">
<rect width="127" height="29.6101" fill="white"/>
</clipPath>
</defs>
</svg>
