<svg width="1511" height="251" viewBox="0 0 1511 251" fill="none" xmlns="http://www.w3.org/2000/svg">
<path d="M0.851562 249.286V181.032C10.0659 136.154 31.7082 108.014 41.3775 99.5531C61.6831 71.9101 99.6069 63.1508 116.031 62.2266C72.6891 71.4409 62.8492 106.876 63.3468 123.442V249.286H0.851562Z" fill="url(#paint0_linear_406_56)"/>
<path d="M94.0678 3.35547C163.005 20.419 185.073 84.8339 187.491 114.908C175.889 66.7892 135.02 60.0207 116.036 62.6513C39.9321 66.4053 7.68302 143.277 1.07144 181.243C-3.53572 109.576 7.82577 76.16 14.0824 68.4103C33.5349 27.1165 75.5112 7.83465 94.0678 3.35547Z" fill="url(#paint1_linear_406_56)"/>
<path d="M108.354 188.109C103.203 187.882 98.3681 187.332 94.0703 186.576C98.9617 187.288 103.722 187.794 108.354 188.109C142.908 189.629 191.651 176.594 187.493 113.629C183.651 82.7582 163.814 22.8225 94.0703 3.35627C131.539 -6.17088 214.838 -1.08025 248.282 95.4995C238.418 130.026 196.949 194.127 108.354 188.109Z" fill="url(#paint2_linear_406_56)"/>
<circle cx="124.775" cy="125.204" r="30.5011" fill="#7415AE"/>
<path d="M93.8594 249.284V186.789C190.78 201.634 237.122 131.402 248 95C263.528 160.865 220.698 210.607 197.52 226.675C169.024 250.564 116.54 251.701 93.8594 249.284Z" fill="url(#paint3_linear_406_56)"/>
<path d="M325.506 40.3157H383.549C391.12 40.3157 397.815 41.6125 403.633 44.2062C409.451 46.7999 414.323 50.1998 418.249 54.4058C422.244 58.5417 425.259 63.2384 427.292 68.4959C429.395 73.6833 430.446 78.9057 430.446 84.1632C430.446 89.7012 429.395 95.0989 427.292 100.356C425.259 105.614 422.244 110.311 418.249 114.446C414.253 118.512 409.346 121.807 403.528 124.331C397.709 126.784 391.05 128.011 383.549 128.011H350.322V187H325.506V40.3157ZM350.322 107.191H378.292C383.409 107.191 387.685 106.595 391.12 105.404C394.625 104.142 397.429 102.459 399.532 100.356C401.705 98.2534 403.247 95.7999 404.159 92.9958C405.14 90.1218 405.631 87.0374 405.631 83.7426C405.631 80.5181 405.035 77.5388 403.843 74.8049C402.651 72.0009 400.899 69.6175 398.586 67.6547C396.272 65.6218 393.398 64.0445 389.963 62.9229C386.599 61.8013 382.708 61.2405 378.292 61.2405H350.322V107.191ZM451.938 79.9572H470.235L474.335 93.101C477.56 88.0538 480.89 84.2684 484.325 81.7448C487.83 79.1511 491.65 77.8542 495.786 77.8542C497.048 77.8542 499.081 78.1346 501.885 78.6954C504.689 79.1861 508.054 80.518 511.979 82.6911V104.142C509.385 103.16 507.142 102.389 505.25 101.828C503.427 101.268 501.885 100.882 500.623 100.672C499.431 100.391 498.485 100.251 497.784 100.251C497.153 100.181 496.697 100.146 496.417 100.146C493.333 100.146 490.564 100.812 488.11 102.144C485.657 103.406 483.589 105.123 481.906 107.296C480.224 109.399 478.927 111.853 478.016 114.657C477.104 117.461 476.649 120.37 476.649 123.384V187H451.938V79.9572ZM541.82 140.103C542.171 143.959 543.047 147.639 544.449 151.144C545.851 154.579 547.639 157.628 549.812 160.292C551.985 162.886 554.509 164.954 557.383 166.496C560.257 168.038 563.341 168.809 566.636 168.809C572.735 168.809 577.782 167.162 581.777 163.867C585.843 160.502 589.068 155.49 591.451 148.831H614.374C612.972 155.21 610.694 160.888 607.539 165.865C604.455 170.842 600.775 175.048 596.498 178.483C592.222 181.918 587.491 184.546 582.303 186.369C577.186 188.192 571.893 189.103 566.426 189.103C558.715 189.103 551.775 187.561 545.606 184.476C539.437 181.392 534.18 177.256 529.833 172.069C525.487 166.881 522.122 160.853 519.739 153.983C517.426 147.043 516.269 139.753 516.269 132.112C516.269 124.961 517.426 118.127 519.739 111.607C522.122 105.018 525.487 99.2348 529.833 94.2577C534.18 89.2105 539.437 85.2147 545.606 82.2705C551.845 79.3263 558.82 77.8542 566.531 77.8542C573.961 77.8542 580.691 79.2212 586.719 81.9551C592.748 84.6189 597.9 88.2992 602.177 92.9958C606.453 97.6926 609.712 103.266 611.955 109.715C614.269 116.094 615.425 122.999 615.425 130.429V140.103H541.82ZM590.189 121.281C589.839 117.916 588.998 114.867 587.666 112.133C586.334 109.399 584.616 107.051 582.513 105.088C580.41 103.055 577.922 101.513 575.048 100.462C572.174 99.3399 569.019 98.7791 565.584 98.7791C562.43 98.7791 559.486 99.375 556.752 100.567C554.088 101.758 551.705 103.371 549.602 105.404C547.569 107.436 545.851 109.82 544.449 112.554C543.117 115.288 542.241 118.197 541.82 121.281H590.189ZM651.047 148.831C651.118 152.476 651.678 155.595 652.73 158.189C653.781 160.712 655.183 162.78 656.936 164.393C658.688 165.935 660.686 167.057 662.929 167.758C665.173 168.459 667.556 168.809 670.08 168.809C672.463 168.809 674.776 168.634 677.02 168.283C679.333 167.863 681.366 167.197 683.118 166.285C684.941 165.374 686.378 164.147 687.429 162.605C688.481 161.063 689.007 159.1 689.007 156.717C689.007 154.754 688.376 153.037 687.114 151.564C685.852 150.092 684.17 148.76 682.067 147.569C680.034 146.307 677.685 145.185 675.022 144.204C672.358 143.223 669.624 142.241 666.82 141.26C662.544 139.788 658.198 138.175 653.781 136.423C649.365 134.6 645.369 132.427 641.794 129.904C638.219 127.31 635.275 124.26 632.962 120.755C630.718 117.18 629.597 112.869 629.597 107.822C629.597 102.775 630.613 98.3936 632.646 94.6783C634.679 90.8929 637.448 87.7734 640.953 85.3199C644.458 82.7963 648.594 80.9386 653.361 79.7469C658.198 78.4851 663.42 77.8542 669.028 77.8542C675.197 77.8542 680.805 78.5552 685.852 79.9572C690.899 81.3592 695.211 83.4973 698.786 86.3714C702.431 89.1754 705.27 92.7856 707.303 97.2019C709.406 101.548 710.597 106.7 710.878 112.659H686.378C686.027 109.995 685.326 107.787 684.275 106.034C683.293 104.212 682.032 102.775 680.489 101.723C678.947 100.672 677.195 99.9358 675.232 99.5152C673.269 99.0245 671.201 98.7791 669.028 98.7791C664.191 98.7791 660.476 99.6554 657.882 101.408C655.359 103.09 654.097 105.333 654.097 108.137C654.097 109.89 654.728 111.467 655.99 112.869C657.251 114.271 658.899 115.568 660.932 116.76C663.035 117.951 665.418 119.073 668.082 120.125C670.746 121.176 673.515 122.228 676.389 123.279C680.665 124.751 685.011 126.399 689.427 128.221C693.914 130.044 697.944 132.217 701.52 134.74C705.095 137.194 708.004 140.068 710.247 143.363C712.56 146.657 713.717 150.548 713.717 155.034C713.717 161.063 712.49 166.25 710.037 170.597C707.653 174.873 704.394 178.378 700.258 181.112C696.192 183.845 691.46 185.843 686.062 187.105C680.665 188.437 674.987 189.103 669.028 189.103C663.35 189.103 657.917 188.262 652.73 186.579C647.613 184.897 643.091 182.408 639.166 179.114C635.31 175.749 632.191 171.543 629.807 166.496C627.424 161.449 626.127 155.56 625.917 148.831H651.047ZM749.504 140.103C749.855 143.959 750.731 147.639 752.133 151.144C753.535 154.579 755.323 157.628 757.496 160.292C759.669 162.886 762.193 164.954 765.067 166.496C767.941 168.038 771.025 168.809 774.32 168.809C780.419 168.809 785.466 167.162 789.462 163.867C793.527 160.502 796.752 155.49 799.135 148.831H822.058C820.656 155.21 818.378 160.888 815.223 165.865C812.139 170.842 808.459 175.048 804.183 178.483C799.906 181.918 795.175 184.546 789.987 186.369C784.87 188.192 779.577 189.103 774.11 189.103C766.399 189.103 759.459 187.561 753.29 184.476C747.121 181.392 741.864 177.256 737.517 172.069C733.171 166.881 729.806 160.853 727.423 153.983C725.11 147.043 723.953 139.753 723.953 132.112C723.953 124.961 725.11 118.127 727.423 111.607C729.806 105.018 733.171 99.2348 737.517 94.2577C741.864 89.2105 747.121 85.2147 753.29 82.2705C759.529 79.3263 766.504 77.8542 774.215 77.8542C781.645 77.8542 788.375 79.2212 794.404 81.9551C800.432 84.6189 805.585 88.2992 809.861 92.9958C814.137 97.6926 817.396 103.266 819.64 109.715C821.953 116.094 823.11 122.999 823.11 130.429V140.103H749.504ZM797.874 121.281C797.523 117.916 796.682 114.867 795.35 112.133C794.018 109.399 792.301 107.051 790.198 105.088C788.095 103.055 785.606 101.513 782.732 100.462C779.858 99.3399 776.703 98.7791 773.268 98.7791C770.114 98.7791 767.17 99.375 764.436 100.567C761.772 101.758 759.389 103.371 757.286 105.404C755.253 107.436 753.535 109.82 752.133 112.554C750.801 115.288 749.925 118.197 749.504 121.281H797.874ZM842.433 79.9572H867.249V92.5753C871.875 87.3177 876.712 83.5674 881.759 81.3242C886.877 79.0109 892.134 77.8542 897.532 77.8542C903 77.8542 907.872 78.6604 912.148 80.2727C916.494 81.885 920.139 84.1983 923.083 87.2126C926.098 90.1568 928.411 93.7319 930.023 97.9379C931.636 102.074 932.442 106.7 932.442 111.818V187H907.626V115.813C907.626 113.08 907.241 110.661 906.47 108.558C905.699 106.455 904.647 104.668 903.315 103.195C901.983 101.723 900.406 100.637 898.583 99.9358C896.761 99.1647 894.833 98.7791 892.8 98.7791C889.505 98.7791 886.316 99.4801 883.232 100.882C880.147 102.214 877.413 104.037 875.03 106.35C872.717 108.593 870.824 111.222 869.352 114.236C867.95 117.18 867.249 120.265 867.249 123.489V187H842.433V79.9572ZM1020.32 118.022C1018.35 111.082 1015.72 106.07 1012.43 102.985C1009.2 99.8306 1005.03 98.2534 999.917 98.2534C996.061 98.2534 992.626 99.1997 989.612 101.092C986.668 102.915 984.144 105.369 982.041 108.453C980.008 111.537 978.466 115.112 977.415 119.178C976.363 123.174 975.837 127.38 975.837 131.796C975.837 136.493 976.363 141.049 977.415 145.466C978.536 149.882 980.113 153.843 982.146 157.348C984.249 160.783 986.738 163.552 989.612 165.655C992.556 167.758 995.851 168.809 999.496 168.809C1002.3 168.809 1004.82 168.178 1007.07 166.916C1009.38 165.584 1011.38 163.832 1013.06 161.659C1014.81 159.416 1016.25 156.857 1017.37 153.983C1018.49 151.039 1019.37 147.919 1020 144.625H1045.66C1044.82 151.564 1043.13 157.768 1040.61 163.236C1038.09 168.704 1034.83 173.366 1030.83 177.221C1026.84 181.077 1022.14 184.021 1016.74 186.054C1011.34 188.087 1005.35 189.103 998.76 189.103C990.558 189.103 983.443 187.491 977.415 184.266C971.456 180.971 966.514 176.66 962.588 171.333C958.663 165.935 955.754 159.801 953.861 152.931C951.968 146.062 951.022 139.017 951.022 131.796C951.022 123.945 952.179 116.725 954.492 110.135C956.875 103.546 960.205 97.8678 964.481 93.101C968.757 88.2641 973.91 84.5137 979.938 81.85C985.967 79.1861 992.696 77.8542 1000.13 77.8542C1006.65 77.8542 1012.46 78.9057 1017.58 81.0088C1022.7 83.0416 1027.15 85.8456 1030.94 89.4207C1034.72 92.9959 1037.84 97.2369 1040.29 102.144C1042.75 107.051 1044.54 112.343 1045.66 118.022H1020.32ZM1082.93 140.103C1083.28 143.959 1084.15 147.639 1085.56 151.144C1086.96 154.579 1088.75 157.628 1090.92 160.292C1093.09 162.886 1095.62 164.954 1098.49 166.496C1101.36 168.038 1104.45 168.809 1107.74 168.809C1113.84 168.809 1118.89 167.162 1122.89 163.867C1126.95 160.502 1130.18 155.49 1132.56 148.831H1155.48C1154.08 155.21 1151.8 160.888 1148.65 165.865C1145.56 170.842 1141.88 175.048 1137.61 178.483C1133.33 181.918 1128.6 184.546 1123.41 186.369C1118.29 188.192 1113 189.103 1107.53 189.103C1099.82 189.103 1092.88 187.561 1086.71 184.476C1080.54 181.392 1075.29 177.256 1070.94 172.069C1066.59 166.881 1063.23 160.853 1060.85 153.983C1058.53 147.043 1057.38 139.753 1057.38 132.112C1057.38 124.961 1058.53 118.127 1060.85 111.607C1063.23 105.018 1066.59 99.2348 1070.94 94.2577C1075.29 89.2105 1080.54 85.2147 1086.71 82.2705C1092.95 79.3263 1099.93 77.8542 1107.64 77.8542C1115.07 77.8542 1121.8 79.2212 1127.83 81.9551C1133.86 84.6189 1139.01 88.2992 1143.28 92.9958C1147.56 97.6926 1150.82 103.266 1153.06 109.715C1155.38 116.094 1156.53 122.999 1156.53 130.429V140.103H1082.93ZM1131.3 121.281C1130.95 117.916 1130.11 114.867 1128.77 112.133C1127.44 109.399 1125.72 107.051 1123.62 105.088C1121.52 103.055 1119.03 101.513 1116.16 100.462C1113.28 99.3399 1110.13 98.7791 1106.69 98.7791C1103.54 98.7791 1100.59 99.375 1097.86 100.567C1095.2 101.758 1092.81 103.371 1090.71 105.404C1088.68 107.436 1086.96 109.82 1085.56 112.554C1084.23 115.288 1083.35 118.197 1082.93 121.281H1131.3ZM1176.49 89.6311C1177.54 83.6024 1179.26 77.7491 1181.64 72.071C1184.02 66.3929 1187.21 61.3457 1191.21 56.9294C1195.2 52.5131 1200.08 48.973 1205.82 46.3092C1211.57 43.6454 1218.37 42.3135 1226.22 42.3135C1233.44 42.3135 1239.72 43.365 1245.05 45.468C1250.44 47.5009 1254.89 50.3049 1258.4 53.88C1261.97 57.4551 1264.64 61.6611 1266.39 66.498C1268.14 71.2648 1269.02 76.4172 1269.02 81.9551C1269.02 87.9136 1267.69 93.4515 1265.02 98.5688C1262.36 103.616 1258.43 107.857 1253.25 111.292C1260.47 115.077 1265.97 119.844 1269.76 125.592C1273.54 131.341 1275.43 138.28 1275.43 146.412C1275.43 153.352 1274.1 159.486 1271.44 164.813C1268.84 170.141 1265.3 174.627 1260.82 178.273C1256.33 181.848 1251.11 184.546 1245.15 186.369C1239.19 188.192 1232.92 189.103 1226.33 189.103C1211.75 189.103 1199.94 184.897 1190.89 176.485C1181.85 168.073 1175.68 155.841 1172.39 139.788H1198.15C1199.13 145.536 1200.64 150.338 1202.67 154.193C1204.7 158.049 1206.98 161.168 1209.5 163.552C1212.1 165.865 1214.83 167.512 1217.71 168.494C1220.65 169.475 1223.52 169.966 1226.33 169.966C1229.27 169.966 1232.22 169.405 1235.16 168.283C1238.11 167.162 1240.73 165.584 1243.05 163.552C1245.43 161.519 1247.32 159.065 1248.73 156.191C1250.2 153.247 1250.93 149.987 1250.93 146.412C1250.93 143.047 1250.3 139.893 1249.04 136.949C1247.85 133.934 1246.13 131.341 1243.89 129.167C1241.65 126.924 1238.91 125.172 1235.69 123.91C1232.46 122.578 1228.85 121.912 1224.86 121.912H1211.19V101.618H1224.86C1228.5 101.618 1231.59 101.092 1234.11 100.041C1236.7 98.9894 1238.77 97.5874 1240.31 95.8349C1241.93 94.0824 1243.08 92.1196 1243.78 89.9465C1244.48 87.7033 1244.84 85.4251 1244.84 83.1117C1244.84 76.8027 1243.05 71.8256 1239.47 68.1804C1235.9 64.5352 1231.03 62.7126 1224.86 62.7126C1221.49 62.7126 1218.44 63.5188 1215.71 65.1311C1213.05 66.6733 1210.73 68.7062 1208.77 71.2298C1206.81 73.7534 1205.23 76.6275 1204.04 79.8521C1202.92 83.0767 1202.14 86.3363 1201.72 89.6311H1176.49ZM1367.91 83.3221C1367.42 80.7985 1366.54 78.3099 1365.28 75.8564C1364.02 73.4029 1362.41 71.1947 1360.45 69.2319C1358.55 67.2691 1356.34 65.6919 1353.82 64.5002C1351.37 63.3085 1348.67 62.7126 1345.72 62.7126C1341.31 62.7126 1337.35 63.8693 1333.84 66.1826C1330.34 68.4258 1327.32 71.5452 1324.8 75.5409C1322.28 79.5366 1320.21 84.2334 1318.6 89.6311C1317.05 94.9587 1316 100.672 1315.44 106.771C1318.11 104.107 1320.8 101.864 1323.54 100.041C1326.34 98.2183 1329.04 96.7462 1331.63 95.6246C1334.3 94.503 1336.82 93.6969 1339.21 93.2062C1341.66 92.7155 1343.87 92.4701 1345.83 92.4701C1353.19 92.4701 1359.74 93.7319 1365.49 96.2555C1371.24 98.709 1376.08 102.144 1380 106.56C1384 110.906 1387.01 116.094 1389.05 122.122C1391.15 128.081 1392.2 134.565 1392.2 141.575C1392.2 147.954 1391.11 154.018 1388.94 159.766C1386.84 165.514 1383.75 170.562 1379.69 174.908C1375.62 179.254 1370.65 182.724 1364.76 185.318C1358.87 187.841 1352.21 189.103 1344.78 189.103C1336.79 189.103 1329.53 187.596 1323.01 184.582C1316.56 181.497 1311.03 177.046 1306.4 171.227C1301.77 165.339 1298.2 158.154 1295.67 149.672C1293.22 141.19 1291.99 131.516 1291.99 120.65C1291.99 107.822 1293.25 96.5359 1295.78 86.792C1298.3 77.0481 1301.91 68.8814 1306.61 62.292C1311.31 55.7026 1316.91 50.7255 1323.43 47.3607C1330.02 43.9959 1337.38 42.3135 1345.51 42.3135C1352.94 42.3135 1359.36 43.5052 1364.76 45.8886C1370.22 48.2019 1374.78 51.2863 1378.43 55.1418C1382.07 58.9973 1384.95 63.3786 1387.05 68.2856C1389.15 73.1926 1390.62 78.2047 1391.46 83.3221H1367.91ZM1344.78 169.966C1348 169.966 1351.02 169.23 1353.82 167.758C1356.63 166.285 1359.04 164.253 1361.08 161.659C1363.11 159.065 1364.69 156.051 1365.81 152.616C1367 149.181 1367.6 145.501 1367.6 141.575C1367.6 137.79 1367.04 134.145 1365.91 130.64C1364.79 127.135 1363.21 124.05 1361.18 121.386C1359.22 118.723 1356.84 116.62 1354.03 115.077C1351.23 113.465 1348.11 112.659 1344.67 112.659C1340.54 112.659 1336.93 113.535 1333.84 115.288C1330.83 117.04 1328.3 119.318 1326.27 122.122C1324.31 124.856 1322.84 127.906 1321.86 131.27C1320.87 134.635 1320.38 137.895 1320.38 141.049C1320.38 145.185 1321.05 149.041 1322.38 152.616C1323.71 156.121 1325.5 159.17 1327.74 161.764C1329.99 164.288 1332.58 166.285 1335.53 167.758C1338.47 169.23 1341.55 169.966 1344.78 169.966ZM1432.31 115.288C1432.31 124.611 1433.01 132.708 1434.42 139.577C1435.82 146.377 1437.71 152.055 1440.09 156.612C1442.55 161.098 1445.39 164.463 1448.61 166.706C1451.84 168.879 1455.31 169.966 1459.02 169.966C1462.74 169.966 1466.21 168.879 1469.43 166.706C1472.73 164.463 1475.57 161.098 1477.95 156.612C1480.4 152.055 1482.33 146.377 1483.73 139.577C1485.13 132.708 1485.83 124.611 1485.83 115.288C1485.83 106.034 1485.13 98.008 1483.73 91.2083C1482.33 84.4086 1480.4 78.8006 1477.95 74.3843C1475.57 69.8979 1472.73 66.5681 1469.43 64.395C1466.21 62.2219 1462.74 61.1354 1459.02 61.1354C1455.31 61.1354 1451.84 62.2219 1448.61 64.395C1445.39 66.5681 1442.55 69.8979 1440.09 74.3843C1437.71 78.8006 1435.82 84.4086 1434.42 91.2083C1433.01 98.008 1432.31 106.034 1432.31 115.288ZM1510.65 115.288C1510.65 126.293 1509.53 136.353 1507.29 145.466C1505.11 154.509 1501.85 162.255 1497.51 168.704C1493.16 175.153 1487.76 180.165 1481.31 183.74C1474.86 187.315 1467.43 189.103 1459.02 189.103C1450.61 189.103 1443.18 187.315 1436.73 183.74C1430.35 180.165 1424.99 175.153 1420.64 168.704C1416.37 162.255 1413.11 154.509 1410.86 145.466C1408.69 136.353 1407.6 126.293 1407.6 115.288C1407.6 104.282 1408.69 94.2927 1410.86 85.3199C1413.11 76.3471 1416.37 68.6711 1420.64 62.292C1424.99 55.9129 1430.35 51.0059 1436.73 47.571C1443.18 44.066 1450.61 42.3135 1459.02 42.3135C1467.43 42.3135 1474.86 44.066 1481.31 47.571C1487.76 51.0059 1493.16 55.9129 1497.51 62.292C1501.85 68.6711 1505.11 76.3471 1507.29 85.3199C1509.53 94.2927 1510.65 104.282 1510.65 115.288Z" fill="#7415AE"/>
<defs>
<linearGradient id="paint0_linear_406_56" x1="63.3435" y1="105.582" x2="6.39388" y2="253.395" gradientUnits="userSpaceOnUse">
<stop stop-color="#039FF7"/>
<stop offset="1" stop-color="#03F6BD"/>
</linearGradient>
<linearGradient id="paint1_linear_406_56" x1="93.7454" y1="3.35547" x2="-2.8184e-07" y2="164.876" gradientUnits="userSpaceOnUse">
<stop stop-color="#C200FF"/>
<stop offset="1" stop-color="#FE012F"/>
</linearGradient>
<linearGradient id="paint2_linear_406_56" x1="117.529" y1="8.31849" x2="181.091" y2="180.66" gradientUnits="userSpaceOnUse">
<stop stop-color="#FF5C01"/>
<stop offset="0.526042" stop-color="#FF9200"/>
<stop offset="1" stop-color="#FEF601"/>
</linearGradient>
<linearGradient id="paint3_linear_406_56" x1="230.791" y1="119.444" x2="93.856" y2="244.435" gradientUnits="userSpaceOnUse">
<stop stop-color="#00D1FF"/>
<stop offset="1" stop-color="#8F00FF"/>
</linearGradient>
</defs>
</svg>
